<?xml version="1.0" standalone="no"?>
<!DOCTYPE svg PUBLIC "-//W3C//DTD SVG 1.1//EN" "http://www.w3.org/Graphics/SVG/1.1/DTD/svg11.dtd" >
<svg xmlns="http://www.w3.org/2000/svg">
<metadata>Generated by IcoMoon</metadata>
<defs>
<font id="icomoon" horiz-adv-x="1024">
<font-face units-per-em="1024" ascent="960" descent="-64" />
<missing-glyph horiz-adv-x="1024" />
<glyph unicode="&#x20;" horiz-adv-x="512" d="" />
<glyph unicode="&#xe900;" glyph-name="star-icon" d="M768.465 306.548l60.509-370.548-316.975 175.057-316.975-175.057 60.509 370.548-255.535 261.632 353.233 53.9 158.767 337.92 158.767-337.92 353.233-53.9zM631.11 565.853l-119.11 256.14-120.18-256-276.852-35.98 204.8-208.943-45.382-268.94 237.615 133.167 234.729-134.284-42.403 268.94 202.659 206.755z" />
<glyph unicode="&#xe901;" glyph-name="hall-icon" horiz-adv-x="1144" d="M1001.412 301.749c-0.968-0.023-2.109-0.036-3.253-0.036-80.806 0-146.312 65.506-146.312 146.312s65.506 146.312 146.312 146.312c80.806 0 146.312-65.506 146.312-146.312 0-0.008 0-0.017 0-0.025 0.006-0.503 0.010-1.097 0.010-1.693 0-79.315-63.874-143.711-142.989-144.556zM1001.412 521.126c-0.484 0.012-1.054 0.018-1.626 0.018-40.386 0-73.126-32.739-73.126-73.126s32.739-73.126 73.126-73.126c40.38 0 73.115 32.729 73.126 73.107 0.003 0.253 0.005 0.551 0.005 0.849 0 39.647-31.92 71.838-71.463 72.278zM1001.412 667.437c-0.968-0.023-2.109-0.036-3.253-0.036-80.806 0-146.312 65.506-146.312 146.312s65.506 146.312 146.312 146.312c80.806 0 146.312-65.506 146.312-146.312 0-0.008 0-0.017 0-0.025 0.006-0.503 0.010-1.097 0.010-1.693 0-79.315-63.874-143.711-142.989-144.556zM1001.412 886.874c-0.502 0.012-1.094 0.019-1.687 0.019-40.419 0-73.186-32.766-73.186-73.186s32.766-73.186 73.186-73.186c40.413 0 73.175 32.755 73.186 73.165 0.004 0.271 0.006 0.59 0.006 0.909 0 39.647-31.92 71.839-71.463 72.278zM572.235-64c-0.968-0.023-2.109-0.036-3.253-0.036-80.806 0-146.312 65.506-146.312 146.312s65.506 146.312 146.312 146.312c80.793 0 146.291-65.485 146.312-146.273 0.007-0.524 0.011-1.14 0.011-1.757 0-79.315-63.874-143.712-142.99-144.556zM572.235 155.437c-0.484 0.012-1.054 0.018-1.626 0.018-40.419 0-73.186-32.766-73.186-73.186s32.766-73.186 73.186-73.186c40.419 0 73.186 32.766 73.186 73.186 0 0.015 0 0.030 0 0.044 0.003 0.249 0.005 0.547 0.005 0.845 0 39.668-31.954 71.873-71.526 72.278zM572.235 301.749c-0.968-0.023-2.109-0.036-3.253-0.036-80.806 0-146.312 65.506-146.312 146.312s65.506 146.312 146.312 146.312c80.806 0 146.312-65.506 146.312-146.312 0-0.008 0-0.017 0-0.025 0.006-0.503 0.010-1.097 0.010-1.693 0-79.315-63.874-143.711-142.989-144.556zM572.235 521.126c-0.466 0.011-1.015 0.017-1.566 0.017-40.386 0-73.126-32.739-73.126-73.126s32.739-73.126 73.126-73.126c40.38 0 73.116 32.73 73.126 73.108 0.003 0.253 0.005 0.55 0.005 0.848 0 39.668-31.954 71.873-71.526 72.278zM572.235 667.437c-0.968-0.023-2.109-0.036-3.253-0.036-80.806 0-146.312 65.506-146.312 146.312s65.506 146.312 146.312 146.312c80.806 0 146.312-65.506 146.312-146.312 0-0.008 0-0.017 0-0.025 0.006-0.503 0.010-1.097 0.010-1.693 0-79.315-63.874-143.711-142.989-144.556zM572.235 886.874c-0.484 0.012-1.055 0.018-1.626 0.018-40.419 0-73.186-32.766-73.186-73.186s32.766-73.186 73.186-73.186c40.413 0 73.176 32.756 73.186 73.167 0.004 0.271 0.006 0.589 0.006 0.908 0 39.668-31.954 71.873-71.527 72.278zM143.059-64c-0.968-0.023-2.109-0.036-3.253-0.036-80.806 0-146.312 65.506-146.312 146.312s65.506 146.312 146.312 146.312c80.793 0 146.291-65.485 146.312-146.273 0.007-0.524 0.011-1.14 0.011-1.757 0-79.315-63.874-143.712-142.99-144.556zM143.059 155.437c-0.502 0.012-1.094 0.019-1.687 0.019-40.419 0-73.186-32.766-73.186-73.186s32.766-73.186 73.186-73.186c40.419 0 73.186 32.766 73.186 73.186 0 0.014 0 0.029 0 0.043 0.003 0.25 0.005 0.547 0.005 0.845 0 39.647-31.92 71.838-71.463 72.278zM143.059 301.749c-0.968-0.023-2.109-0.036-3.253-0.036-80.806 0-146.312 65.506-146.312 146.312s65.506 146.312 146.312 146.312c80.806 0 146.312-65.506 146.312-146.312 0-0.008 0-0.017 0-0.025 0.006-0.503 0.010-1.097 0.010-1.693 0-79.315-63.874-143.711-142.989-144.556zM143.059 521.126c-0.484 0.012-1.054 0.018-1.626 0.018-40.386 0-73.126-32.739-73.126-73.126s32.739-73.126 73.126-73.126c40.38 0 73.115 32.729 73.126 73.107 0.003 0.253 0.005 0.551 0.005 0.849 0 39.647-31.92 71.838-71.463 72.278zM143.059 667.437c-0.968-0.023-2.109-0.036-3.253-0.036-80.806 0-146.312 65.506-146.312 146.312s65.506 146.312 146.312 146.312c80.806 0 146.312-65.506 146.312-146.312 0-0.008 0-0.017 0-0.025 0.006-0.503 0.010-1.097 0.010-1.693 0-79.315-63.874-143.711-142.989-144.556zM143.059 886.874c-0.502 0.012-1.094 0.019-1.687 0.019-40.419 0-73.186-32.766-73.186-73.186s32.766-73.186 73.186-73.186c40.413 0 73.175 32.755 73.186 73.165 0.004 0.271 0.006 0.59 0.006 0.909 0 39.647-31.92 71.839-71.463 72.278zM1001.412 228.563c0.968 0.023 2.109 0.036 3.253 0.036 80.806 0 146.312-65.506 146.312-146.312s-65.506-146.312-146.312-146.312c-80.806 0-146.312 65.506-146.312 146.312 0 0.008 0 0.017 0 0.025-0.006 0.503-0.010 1.097-0.010 1.693 0 79.315 63.874 143.711 142.989 144.556zM1001.412 9.126c0.484-0.012 1.055-0.018 1.626-0.018 40.419 0 73.186 32.766 73.186 73.186s-32.766 73.186-73.186 73.186c-40.413 0-73.176-32.756-73.186-73.167-0.004-0.271-0.006-0.589-0.006-0.908 0-39.668 31.954-71.873 71.527-72.278z" />
<glyph unicode="&#xe902;" glyph-name="time-icon" d="M960 736.023v64c0 53.006-42.97 95.977-95.977 95.977h-64.047v64h64c0.014 0 0.030 0 0.047 0 88.353 0 159.977-71.624 159.977-159.977v-64h-64zM960 448c0-0.028 0-0.062 0-0.096 0-168.745-93.324-315.692-231.175-392.046l103.175-119.858h-95.977l-85.923 85.923c-41.232-13.9-88.718-21.922-138.077-21.922s-96.844 8.021-141.223 22.832l-82.777-86.833h-96.023l105.472 118.691c-140.151 77.556-233.472 224.528-233.472 393.296 0 247.424 200.576 448 448 448 247.419 0 447.992-200.569 448-447.986zM512 832c-212.077 0-384-171.923-384-384s171.923-384 384-384c212.077 0 384 171.923 384 384s-171.923 384-384 384zM736.023 416.023h-224.023c-0.014 0-0.030 0-0.047 0-17.66 0-31.977 14.316-31.977 31.977 0 0 0 0 0 0v256c-0.015 0.364-0.023 0.791-0.023 1.221 0 17.686 14.337 32.023 32.023 32.023s32.023-14.337 32.023-32.023c0-0.429-0.008-0.857-0.025-1.282l0.002-223.916h192c0.007 0 0.015 0 0.023 0 17.673 0 32-14.327 32-32 0-17.665-14.314-31.987-31.975-32zM160.023 896c-53.006 0-95.977-42.97-95.977-95.977v-64h-64.047v64c0 88.353 71.624 159.977 159.977 159.977 0.016 0 0.033 0 0.049 0h63.997v-64h-64z" />
<glyph unicode="&#xe903;" glyph-name="72" horiz-adv-x="1216" d="M1208.525 487.117l-142.541-149.436c-5.401-5.477-12.903-8.869-21.197-8.869s-15.796 3.393-21.193 8.866l-141.588 149.439c-16.862 20.48-5.598 27.853 6.076 39.663h129.707c-33.435 200.183-203.924 351.341-410.299 354.437-159.471-1.156-297.235-91.558-366.167-223.595l-71.815 27.059c81.273 163.267 246.379 273.807 437.455 275.318 249.469-3.955 454.119-189.923 487.265-430.613l108.155-2.606c7.327-4.973 12.079-13.265 12.079-22.666 0-6.45-2.237-12.378-5.976-17.051zM192.307 518.929l142.541-149.436c3.698-4.618 5.935-10.546 5.935-16.997 0-9.401-4.751-17.693-11.983-22.605l-123.521-0.061c47.975-180.999 209.228-312.64 401.614-315.048 146.445 0.917 274.531 77.504 347.43 192.524l72.408-27.936c-85.783-145.588-241.263-242.053-419.378-243.37-235.395 3.319-430.871 169.415-479.228 390.54l-113.721 3.289c-11.674 11.81-22.938 19.183-6.144 39.663l141.585 149.436c5.42 5.464 12.93 8.846 21.231 8.846s15.811-3.382 21.229-8.844z" />
<glyph unicode="&#xe904;" glyph-name="down-icon" horiz-adv-x="931" d="M930.909 379.718c-6.226-246.441-207.483-443.842-454.845-443.842-3.73 0-7.45 0.045-11.159 0.134-5.919-0.348-13.494-0.54-21.114-0.54-244.802 0-443.252 198.451-443.252 443.252 0 239.948 190.659 435.364 428.747 443.019 0.703 0.623 0.33 1.135 0.33 1.74v68.236h-143.174c-0.376-0.015-0.817-0.023-1.261-0.023-18.868 0-34.164 15.296-34.164 34.164s15.296 34.164 34.164 34.164c0.443 0 0.885-0.008 1.324-0.025l357.964 0.002c0.376 0.015 0.817 0.023 1.261 0.023 18.868 0 34.164-15.296 34.164-34.164s-15.296-34.164-34.164-34.164c-0.443 0-0.885 0.008-1.324 0.025l-143.157-0.002v-68.236c0-0.605-0.326-1.117-0.372-1.722 236.608-12.191 424.539-204.303 430.024-441.515zM465.455 755.2c-5.442 0.282-11.816 0.442-18.227 0.442-207.604 0-375.901-168.297-375.901-375.901s168.297-375.901 375.901-375.901c6.411 0 12.785 0.16 19.117 0.478 4.553-0.317 10.927-0.478 17.338-0.478 207.604 0 375.901 168.297 375.901 375.901s-168.297 375.901-375.901 375.901c-6.411 0-12.785-0.16-19.117-0.478zM465.455 277.318c-0.73-0.018-1.59-0.029-2.452-0.029-57.087 0-103.534 45.555-104.972 102.295 0.674 45.080 30.207 82.952 70.86 96.094l0.725 177.075c0.715 19.23 16.477 34.549 35.817 34.549s35.102-15.318 35.815-34.484l0.002-176.938c41.378-13.344 70.91-51.216 71.586-96.084-1.44-56.952-47.887-102.507-104.974-102.507-0.846 0-1.689 0.010-2.53 0.030z" />
<glyph unicode="&#xe905;" glyph-name="iphone-icon" horiz-adv-x="639" d="M511.368-64h-384.092c-70.671 0-127.961 57.29-127.961 127.96 0 0.019 0 0.037 0 0.056v768.076c0 70.681 57.283 127.983 127.958 128.013h384.095c70.7 0 128.013-57.313 128.013-128.013v-768.079c0-0.016 0-0.034 0-0.053 0-70.671-57.29-127.96-127.96-127.96-0.019 0-0.037 0-0.056 0zM319.348 0.217c35.35 0 64.007 28.657 64.007 64.007s-28.657 64.007-64.007 64.007c-35.35 0-64.007-28.657-64.007-64.007s28.657-64.007 64.007-64.007zM447.361 896.257h-256.026v-63.954h256.026v63.48zM575.374 768.296h-512.053v-576.059h512.053v575.849z" />
<glyph unicode="&#xe906;" glyph-name="lock-icon" horiz-adv-x="898" d="M718.747-63.691h-539.46c-0.276-0.002-0.603-0.002-0.929-0.002-98.483 0-178.377 79.588-178.873 177.955v333.738c0.233 49.218 40.186 89.027 89.437 89.027 0.163 0 0.327 0 0.49-0.001h89.876v200.204c0.642 123.029 100.524 222.515 223.643 222.515 0.4 0 0.799-0.001 1.198-0.003h89.84c0.338 0.002 0.737 0.003 1.136 0.003 123.119 0 223.001-99.486 223.643-222.454v-200.266h89.901c0.138 0.001 0.301 0.001 0.465 0.001 49.251 0 89.203-39.809 89.437-89.005v-333.713c-0.496-98.414-80.39-178.002-178.873-178.002-0.327 0-0.654 0.001-0.98 0.003zM673.771 737.23c-0.496 98.414-80.39 178.002-178.873 178.002-0.327 0-0.654-0.001-0.98-0.003h-89.851c-0.276 0.002-0.603 0.002-0.929 0.002-98.483 0-178.377-79.588-178.873-177.955v-200.252h449.507v200.204zM853.625 403.539v44.461c-0.117 24.609-20.093 44.514-44.718 44.514-0.091 0-0.181 0-0.272-0.001h-719.249c-0.077 0-0.167 0.001-0.258 0.001-24.625 0-44.602-19.904-44.718-44.502v-333.702c0.262-73.781 60.133-133.49 133.95-133.49 0.326 0 0.652 0.001 0.978 0.003h539.41c0.276-0.002 0.602-0.003 0.928-0.003 73.817 0 133.688 59.709 133.95 133.465v289.255zM471.506 252.278v-48.995c-0.59-11.962-10.433-21.437-22.488-21.437s-21.898 9.475-22.486 21.385l-0.002 48.996c-26.205 9.086-44.721 33.472-44.925 62.211 1.039 36.46 30.823 65.6 67.413 65.6s66.374-29.14 67.411-65.479c-0.202-28.859-18.718-53.245-44.458-62.191zM449.043 336.77c-12.203-0.117-22.050-10.036-22.050-22.255 0-12.292 9.965-22.256 22.256-22.256s22.256 9.964 22.256 22.255c-0.058 12.305-10.047 22.257-22.359 22.257-0.036 0-0.073 0-0.109 0z" />
<glyph unicode="&#xe907;" glyph-name="icon-attr-down" horiz-adv-x="1536" d="M768-64l768 1024h-1536z" />
<glyph unicode="&#xe908;" glyph-name="icon-attr-up" horiz-adv-x="1536" d="M768 960l768-1024h-1536z" />
<glyph unicode="&#xe909;" glyph-name="3" d="M0-64v768l256 159.972 256-95.972 256 192 256-192v-768l-256 192-256-192-256 96.028zM960 752.014l-192 143.986-256-192-256 95.972-192-119.979v-640l192 120.036 256-96.028 256 192 192-143.986v640zM768 672.028c-0.018 0.403-0.028 0.875-0.028 1.35 0 17.689 14.34 32.028 32.028 32.028s32.028-14.34 32.028-32.028c0-0.475-0.010-0.947-0.031-1.416l0.002-255.933c-0.743-17.098-14.786-30.679-32-30.679s-31.257 13.58-31.998 30.612l-0.002 256.067zM543.972 288.028c-17.644 0.032-31.939 14.327-31.972 31.968v192.003c-0.018 0.403-0.028 0.875-0.028 1.35 0 17.689 14.34 32.028 32.028 32.028s32.028-14.34 32.028-32.028c0-0.475-0.010-0.947-0.031-1.416l0.002-191.933c-0.032-17.664-14.36-31.972-32.028-31.972 0 0 0 0 0 0zM287.972 256.057c-17.657 0-31.972 14.314-31.972 31.972v320c-0.018 0.403-0.028 0.875-0.028 1.35 0 17.689 14.34 32.028 32.028 32.028s32.028-14.34 32.028-32.028c0-0.475-0.010-0.947-0.031-1.416l0.002-319.933c0-17.689-14.34-32.028-32.028-32.028z" />
<glyph unicode="&#xe90a;" glyph-name="billiard-ball" d="M576.008 432c19.427-14.596 31.992-37.83 31.992-64 0-44.183-35.817-80-80-80s-80 35.817-80 80c0 26.17 12.565 49.404 31.992 64-19.427 14.596-31.992 37.83-31.992 64 0 44.183 35.817 80 80 80s80-35.817 80-80c0-26.17-12.565-49.404-31.992-64v0 0zM528 32v0c-220.914 0-400 179.086-400 400s179.086 400 400 400c220.914 0 400-179.086 400-400s-179.086-400-400-400zM528 224c114.875 0 208 93.125 208 208s-93.125 208-208 208c-114.875 0-208-93.125-208-208s93.125-208 208-208v0zM528 320c26.51 0 48 21.49 48 48s-21.49 48-48 48c-26.51 0-48-21.49-48-48s21.49-48 48-48v0zM528 448c26.51 0 48 21.49 48 48s-21.49 48-48 48c-26.51 0-48-21.49-48-48s21.49-48 48-48v0z" />
<glyph unicode="&#xe90b;" glyph-name="4" d="M780.009 145.455c92.414 49.65 154.828 144.525 157.642 254.223-0.517 69.434-26.107 132.412-68.1 180.761 3.133 17.59 4.821 38.35 4.945 59.481 0.001 9.437-0.977 18.746-1.582 27.683 77.135-62.822 126.4-157.311 127.811-263.35-2.141-119.678-63.732-224.286-156.362-285.966l-1.285-182.285-176.873 110.452c-22.667-4.014-48.805-6.347-75.474-6.423-1.199-0.013-2.534-0.020-3.871-0.020-107.261 0-203.572 46.881-269.561 121.27 12.056-0.371 24.344-1.256 36.911-1.256 17.594 0 34.956 0.884 52.131 2.281 48.91-41.232 112.632-66.289 182.205-66.289 0.744 0 1.486 0.003 2.229 0.009 28.834 0.083 56.988 3.284 84.091 9.281l105.003-73.282v113.431zM433.152 224.070c-38.215 0.816-74.891 3.851-110.888 8.994l-172.853-104.971v181.527c-77.538 67.499-126.269 166.367-126.269 276.617 0 3.438 0.047 6.865 0.142 10.28-0.011 200.527 183.192 363.483 409.868 363.483 188.463 0 378.368-162.909 378.368-363.985 0.022-1.491 0.034-3.25 0.034-5.013 0-202.772-164.379-367.151-367.151-367.151-3.957 0-7.898 0.063-11.825 0.187zM320.047 296.867c33.926-5.497 73.1-8.692 113.001-8.797 4.915-0.276 10.543-0.434 16.207-0.434 165.292 0 299.287 133.995 299.287 299.287 0 1.805-0.016 3.607-0.048 5.405 0.004 167.619-158.53 303.718-315.342 303.718-196.934 0-346.81-136.099-346.81-303.988 0.283-103.441 49.325-195.369 125.344-254.049l0.747-113.939zM606.58 544.070c-0.208-0.003-0.453-0.005-0.698-0.005-26.503 0-47.988 21.485-47.988 47.988s21.485 47.988 47.988 47.988c26.501 0 47.985-21.482 47.988-47.983 0.001-0.111 0.001-0.243 0.001-0.374 0-26.193-21.128-47.451-47.272-47.661zM417.42 544.070c-0.208-0.003-0.453-0.005-0.698-0.005-26.503 0-47.988 21.485-47.988 47.988s21.485 47.988 47.988 47.988c26.501 0 47.985-21.482 47.988-47.983 0.001-0.111 0.001-0.243 0.001-0.374 0-26.193-21.128-47.451-47.272-47.661zM228.212 544.070c-0.208-0.003-0.453-0.005-0.698-0.005-26.503 0-47.988 21.485-47.988 47.988s21.485 47.988 47.988 47.988c26.501 0 47.985-21.482 47.988-47.983 0.001-0.111 0.001-0.242 0.001-0.373 0-26.242-21.208-47.531-47.419-47.662z" />
<glyph unicode="&#xe90c;" glyph-name="6" d="M671.205-64h-318.464c-105.577 0.276-191.057 85.926-191.057 191.541 0 0.171 0 0.342 0.001 0.512v127.973c0.077 83.266 53.332 154.074 127.631 180.297-39.452 56.048-63.935 125.865-63.935 201.4 0 0.81 0.003 1.619 0.008 2.428-0.001 176.597 128.323 319.849 286.612 319.849s286.612-143.252 286.612-319.973c0.005-0.684 0.008-1.494 0.008-2.303 0-75.535-24.483-145.352-65.945-201.948 76.3-25.689 129.547-96.488 129.641-179.737v-128.011c0-0.144 0.001-0.315 0.001-0.486 0-105.634-85.511-191.297-191.088-191.541zM734.909 640.027c0 141.366-99.813 256-222.909 256s-222.909-114.634-222.909-256 99.813-256 222.909-256 222.909 114.58 222.909 256zM798.612 240.020c-2.279 69.762-52.895 127.060-119.326 139.606-45.747-37.054-103.881-59.625-167.286-59.625s-121.54 22.571-166.805 60.117c-66.912-13.037-117.528-70.336-119.801-139.861l-0.006-96.223c3.528-80.332 69.51-144.123 150.392-144.123 2.076 0 4.142 0.042 6.198 0.125l260.286-0.009c1.761-0.074 3.827-0.116 5.903-0.116 80.881 0 146.864 63.791 150.381 143.805l0.011 96.304z" />
<glyph unicode="&#xe90d;" glyph-name="7" d="M991.987 320h-191.973c-17.681 0-32.013 14.333-32.013 32.013s14.333 32.013 32.013 32.013h191.973c17.681 0 32.013-14.333 32.013-32.013s-14.333-32.013-32.013-32.013zM991.987 512.027h-256c-0.392-0.017-0.851-0.027-1.313-0.027-17.681 0-32.013 14.333-32.013 32.013s14.333 32.013 32.013 32.013c0.462 0 0.921-0.010 1.379-0.029l255.935 0.002c0.392 0.017 0.851 0.027 1.313 0.027 17.681 0 32.013-14.333 32.013-32.013s-14.333-32.013-32.013-32.013c-0.462 0-0.921 0.010-1.379 0.029zM991.987 704h-256c-0.392-0.017-0.851-0.027-1.313-0.027-17.681 0-32.013 14.333-32.013 32.013s14.333 32.013 32.013 32.013c0.462 0 0.921-0.010 1.379-0.029l255.935 0.002c0.392 0.017 0.851 0.027 1.313 0.027 17.681 0 32.013-14.333 32.013-32.013s-14.333-32.013-32.013-32.013c-0.462 0-0.921 0.010-1.379 0.029zM703.973 255.973v-128c0-106.024-85.949-191.973-191.973-191.973h-320.027c-106.024 0-191.973 85.949-191.973 191.973 0 0.019 0 0.038 0 0.057v127.997c0.135 83.354 53.552 154.196 128.006 180.299-39.645 56.013-64.256 125.877-64.256 201.49 0 0.777 0.003 1.554 0.008 2.33-0.001 176.602 128.969 319.854 288.013 319.854s288.013-143.252 288.013-320.027c0.005-0.657 0.007-1.434 0.007-2.211 0-75.613-24.61-145.477-66.258-202.020 76.619-25.425 130.214-96.282 130.439-179.688zM575.973 639.973c0 141.366-100.298 256-223.987 256s-223.987-114.634-223.987-256 100.298-256 223.987-256 223.987 114.634 223.987 256.054zM640 239.966c-2.444 69.887-53.288 127.211-119.924 139.609-46.008-37.010-104.364-59.538-167.982-59.538s-121.975 22.528-167.527 60.041c-67.091-12.901-117.935-70.225-120.371-139.86l-0.007-96.185c3.719-80.38 69.79-144.14 150.754-144.14 2.233 0 4.455 0.049 6.665 0.145l261.506-0.011c1.895-0.085 4.116-0.134 6.35-0.134 80.963 0 147.035 63.76 150.741 143.807l0.012 96.32zM800.013 191.946h191.973c0.392 0.017 0.851 0.027 1.313 0.027 17.681 0 32.013-14.333 32.013-32.013s-14.333-32.013-32.013-32.013c-0.462 0-0.921 0.010-1.379 0.029l-191.908-0.002c-17.681 0-32.013 14.333-32.013 32.013s14.333 32.013 32.013 32.013z" />
<glyph unicode="&#xe90e;" glyph-name="Book---lines" d="M967.232 905.216c-20.093 13.74-44.921 21.942-71.663 21.942-17.112 0-33.439-3.358-48.359-9.45l-318.825-127.691c-6.363-3.149-11.749-6.362-16.863-9.939-4.28 3.568-9.666 6.781-15.284 9.599l-320.749 128.34c-14.025 5.748-30.303 9.084-47.36 9.084-70.646 0-127.925-57.232-128-127.861v-576.007c0-0.010 0-0.022 0-0.034 0-53.539 32.87-99.4 79.53-118.504l320.854-128.309c14.065-5.75 30.387-9.087 47.488-9.088 23.694 0.333 45.74 7.097 64.556 18.62 17.707-11.517 39.751-18.281 63.351-18.619 17.196 0.010 33.516 3.346 48.447 9.397l319.135 127.69c47.48 19.43 80.32 65.274 80.32 118.788 0 0.021 0 0.042 0 0.063v575.997c-0.084 43.962-22.316 82.713-56.13 105.698zM448 95.616l-320 128v576l320-128v-576zM895.552 223.616l-320-128v576l320 128v-576zM384.064 633.216l-192 76.8v-64l192-76.8v64zM384.064 505.216l-192 76.8v-64l192-76.8v64zM384.064 377.216l-192 76.8v-64l192-76.8v64zM384.064 249.216l-192 76.8v-64l192-76.8v64zM831.616 326.016l-192-76.8v-64l192 76.8v64zM831.616 454.016l-192-76.8v-64l192 76.8v64zM831.616 582.016l-192-76.8v-64l192 76.8v64zM831.616 710.016l-192-76.8v-64l192 76.8v64z" />
<glyph unicode="&#xe90f;" glyph-name="Home" d="M832 896.064h128v-277.504l-128 146.24v131.264zM896 448.064l-384 438.656-384-438.656h-128l448 512h128l448-512h-128zM896 365.44v-429.12h-256v320c0 35.346-28.654 64-64 64h-128c-35.346 0-64-28.654-64-64v-320h-256v429.376l384 424.064z" />
<glyph unicode="&#xe910;" glyph-name="Notes" d="M831.552-63.104h-640c-106.039 0-192 85.961-192 192v640c0.161 82.823 52.932 153.279 126.665 179.742l1.335-83.806c0-53.019 42.981-96 96-96s96 42.981 96 96v96h384v-96c0-53.019 42.981-96 96-96s96 42.981 96 96v84.224c75.057-26.897 127.818-97.343 128-180.138v-640.022c0-106.039-85.961-192-192-192zM895.552 640.896h-768v-512c0-35.346 28.654-64 64-64h640c35.346 0 64 28.654 64 64v512zM191.552 320.896h640v-64h-640v64zM191.552 448.896h640v-64h-640v64zM191.552 576.896h640v-64h-640v64zM511.552 128.896h-320v64h320v-64zM799.552 832.512c-17.673 0-32 14.327-32 32v96h64v-96c0-0.019 0-0.041 0-0.064 0-17.673-14.327-32-32-32 0 0 0 0 0 0zM223.552 832.512c-17.673 0-32 14.327-32 32v96h64v-96c0-0.019 0-0.041 0-0.064 0-17.673-14.327-32-32-32 0 0 0 0 0 0z" />
<glyph unicode="&#xe911;" glyph-name="Shape-47" d="M857.234 82.432c-0.052 0-0.113 0-0.175 0-8.42 0-16.106 3.143-21.949 8.32-6.044 5.248-9.866 12.988-9.866 21.621 0 8.123 3.383 15.455 8.818 20.665 77.96 82.017 125.91 193.183 125.91 315.548s-47.949 233.531-126.084 315.733c-5.26 5.024-8.644 12.357-8.644 20.479 0 8.633 3.822 16.373 9.865 21.621 5.907 5.175 13.65 8.314 22.126 8.314 8.985 0 17.146-3.527 23.174-9.272 88.848-92.435 143.575-218.264 143.575-356.876s-54.727-264.44-143.751-357.059c-5.768-5.563-13.856-9.095-22.77-9.095-0.081 0-0.161 0-0.242 0.001zM750.933 174.787c-0.066 0-0.144-0.001-0.222-0.001-8.796 0-16.789 3.435-22.712 9.036-5.582 5.216-9.070 12.642-9.070 20.883 0 8.519 3.728 16.167 9.641 21.402 57.273 56.804 92.711 135.49 92.711 222.454s-35.438 165.65-92.66 222.407c-5.964 5.282-9.692 12.93-9.692 21.449 0 8.241 3.489 15.667 9.069 20.882 6.002 5.611 14.068 9.047 22.936 9.047 8.588 0 16.424-3.223 22.364-8.525 69.123-67.279 112.026-161.259 112.026-265.26s-42.903-197.982-111.976-265.209c-5.915-5.345-13.68-8.566-22.197-8.566-0.077 0-0.153 0-0.23 0.001zM645.608 269.093c-0.008 0-0.016 0-0.025 0-9.631 0-18.299 4.124-24.334 10.703-4.623 5.091-7.44 11.851-7.44 19.269 0 9.346 4.472 17.648 11.393 22.883 35.342 31.104 57.478 76.354 57.478 126.774 0 51.033-22.677 96.769-58.505 127.681-7.369 5.47-11.956 13.872-11.956 23.345 0 7.285 2.712 13.936 7.182 18.999 6.15 6.741 15.012 10.974 24.862 10.974 7.604 0 14.618-2.522 20.253-6.776 50.307-41.644 82.17-104.201 82.17-174.201 0-69.129-31.077-131.001-80.022-172.405-5.894-4.624-12.987-7.249-20.693-7.249-0.127 0-0.255 0.001-0.382 0.002zM450.56 59.416c-0.040 0-0.088 0-0.136 0-7.118 0-13.715 2.226-19.135 6.021l-262.378 183.566h-136.826c-0.34-0.013-0.74-0.021-1.141-0.021-16.714 0-30.335 13.243-30.943 29.808l-0.002 339.438c0.559 16.662 14.201 29.957 30.947 29.957 0.366 0 0.73-0.006 1.093-0.019l136.773 0.001 262.485 183.637c5.378 3.704 12.034 5.916 19.206 5.916 5.185 0 10.101-1.156 14.502-3.225 10.151-4.616 17.263-14.797 17.443-26.659v-718.481c-0.18-11.885-7.293-22.066-17.465-26.694-4.39-2.073-9.319-3.241-14.521-3.246zM64.073 308.882h115.468c0.036 0 0.078 0 0.121 0 7.123 0 13.725-2.226 19.15-6.021l219.759-153.723v598.942l-219.867-153.795c-5.322-3.723-11.93-5.949-19.058-5.949-0.037 0-0.074 0-0.112 0h-115.462v-279.406z" />
<glyph unicode="&#xe912;" glyph-name="ALARM" horiz-adv-x="1074" d="M1032.024 641.049c-54.472 124.752-151.972 222.262-273.324 275.424 29.817 27.688 72.343 43.621 118.59 43.621 108.825 0 197.044-88.22 197.044-197.044 0-46.256-15.938-88.789-42.622-122.407zM1024 422.82c0-0.041 0-0.089 0-0.137 0-129.356-50.672-246.876-133.249-333.795l68.284-67.879c9.022-9.022 14.602-21.486 14.602-35.252 0-27.534-22.321-49.855-49.855-49.855-13.767 0-26.231 5.58-35.252 14.602l-73.157 73.124c-77.562-54.882-174.103-87.727-278.315-87.727-104.006 0-200.371 32.715-279.367 88.416l-71.122-73.645c-9.047-8.747-21.387-14.137-34.986-14.137-27.813 0-50.361 22.547-50.361 50.361 0 13.599 5.39 25.939 14.15 35l67.537 67.536c-81.847 86.869-132.146 204.254-132.146 333.387 0 268.752 217.866 486.618 486.618 486.618s486.618-217.866 486.618-486.617zM537.18 808.918c-213.236 0-386.098-172.862-386.098-386.098s172.862-386.098 386.098-386.098c213.236 0 386.098 172.862 386.098 386.098s-172.862 386.098-386.098 386.098zM738.623 372.459h-201.443c-27.813 0-50.361 22.547-50.361 50.361v268.59c0 27.813 22.547 50.361 50.361 50.361s50.361-22.547 50.361-50.361v-218.23h151.082c27.813 0 50.361-22.547 50.361-50.361s-22.547-50.361-50.361-50.361zM43.209 634.167c-26.96 33.928-43.253 77.387-43.253 124.651 0 111.142 90.099 201.241 201.241 201.241 47.272 0 90.738-16.3 125.083-43.585-127.814-55.34-227.399-154.915-281.717-278.842z" />
<glyph unicode="&#xe913;" glyph-name="TIME" d="M512-64c-282.77 0-512 229.23-512 512s229.23 512 512 512c282.77 0 512-229.23 512-512s-229.23-512-512-512zM512 864c-229.75 0-416-186.25-416-416s186.25-416 416-416c229.75 0 416 186.25 416 416s-186.25 416-416 416zM720 400h-208c-26.51 0-48 21.49-48 48v288c0 26.51 21.49 48 48 48s48-21.49 48-48v-240h160c26.51 0 48-21.49 48-48s-21.49-48-48-48z" />
<glyph unicode="&#xe914;" glyph-name="10" horiz-adv-x="960" d="M832-64h-704c-70.692 0-128 57.308-128 128v768c0 70.692 57.308 128 128 128h704c70.692 0 128-57.308 128-128v-768c0-70.692-57.308-128-128-128zM896 832c0 35.346-28.654 64-64 64h-704c-35.346 0-64-28.654-64-64v-64h832v64zM896 704h-832v-640c0-35.346 28.654-64 64-64h704c35.346 0 64 28.654 64 64v640zM736 128c-53.019 0-96 42.981-96 96s42.981 96 96 96c53.019 0 96-42.981 96-96s-42.981-96-96-96zM768 256h-64v-64h64v64zM736 384c-53.019 0-96 42.981-96 96s42.981 96 96 96c53.019 0 96-42.981 96-96s-42.981-96-96-96zM768 512h-64v-64h64v64zM480 128c-53.019 0-96 42.981-96 96s42.981 96 96 96c53.019 0 96-42.981 96-96s-42.981-96-96-96zM512 256h-64v-64h64v64zM480 384c-53.019 0-96 42.981-96 96s42.981 96 96 96c53.019 0 96-42.981 96-96s-42.981-96-96-96zM512 512h-64v-64h64v64zM224 128c-53.019 0-96 42.981-96 96s42.981 96 96 96c53.019 0 96-42.981 96-96s-42.981-96-96-96zM256 256h-64v-64h64v64zM224 384c-53.019 0-96 42.981-96 96s42.981 96 96 96c53.019 0 96-42.981 96-96s-42.981-96-96-96zM256 512h-64v-64h64v64z" />
<glyph unicode="&#xe915;" glyph-name="acc" d="M780.092 153.918c138.802 25.955 243.855 147.75 243.855 294.082s-105.053 268.128-245.707 294.37l1.486-85.671c93.341-23.537 162.431-108.049 162.431-208.699s-69.090-185.162-163.917-209.016v-85.353zM573.53-63.998c45.368 0.968 81.847 38.048 81.847 83.647 0 0.599-0.006 1.197-0.017 1.704l-0.001 853.267c0.012 0.575 0.018 1.152 0.018 1.73 0 45.599-36.479 82.679-81.936 83.649l-368.64-256-122.97-0.002c-45.368-0.968-81.847-38.048-81.847-83.647 0-0.599 0.006-1.197 0.017-1.704l0.001-341.204c-0.013-0.596-0.019-1.194-0.019-1.793 0-45.6 36.479-82.679 81.937-83.649h122.88l368.64-256zM204.8 576l-0.001-255.956c0.006-0.298 0.009-0.597 0.009-0.896 0-22.794-18.243-41.327-40.969-41.795l-41.004 0.001c-22.682 0.467-40.925 19-40.925 41.794 0 0.299 0.003 0.598 0.009 0.852l0.001 255.956c-0.006 0.298-0.009 0.597-0.009 0.896 0 22.794 18.243 41.327 40.969 41.795l41.004-0.001c22.682-0.467 40.925-19 40.925-41.794 0-0.299-0.003-0.598-0.009-0.852zM573.44 21.353l-286.72 186.729v479.955l286.72 186.729v-853.353z" />
<glyph unicode="&#xe93b;" glyph-name="coin-dollar" d="M480 896c-265.096 0-480-214.904-480-480 0-265.098 214.904-480 480-480 265.098 0 480 214.902 480 480 0 265.096-214.902 480-480 480zM480 32c-212.078 0-384 171.922-384 384s171.922 384 384 384c212.078 0 384-171.922 384-384s-171.922-384-384-384zM512 448v128h128v64h-128v64h-64v-64h-128v-256h128v-128h-128v-64h128v-64h64v64h128.002l-0.002 256h-128zM448 448h-64v128h64v-128zM576.002 256h-64.002v128h64.002v-128z" />
<glyph unicode="&#xe93e;" glyph-name="coin-yen" d="M480 896c-265.096 0-480-214.904-480-480s214.904-480 480-480c265.098 0 480 214.902 480 480s-214.902 480-480 480zM480 32c-212.078 0-384 171.922-384 384s171.922 384 384 384c212.076 0 384-171.922 384-384s-171.924-384-384-384zM608 384c17.674 0 32 14.326 32 32s-14.326 32-32 32h-68.208l94.832 142.25c9.804 14.704 5.83 34.572-8.876 44.376-14.704 9.802-34.572 5.83-44.376-8.876l-101.372-152.062-101.374 152.062c-9.804 14.706-29.672 18.68-44.376 8.876-14.706-9.804-18.678-29.672-8.876-44.376l94.834-142.25h-68.208c-17.672 0-32-14.326-32-32s14.328-32 32-32h96v-64h-96c-17.672 0-32-14.326-32-32s14.328-32 32-32h96v-96c0-17.674 14.328-32 32-32s32 14.326 32 32v96h96c17.674 0 32 14.326 32 32s-14.326 32-32 32h-96v64h96z" />
<glyph unicode="&#xe93f;" glyph-name="credit-card" d="M928 832h-832c-52.8 0-96-43.2-96-96v-576c0-52.8 43.2-96 96-96h832c52.8 0 96 43.2 96 96v576c0 52.8-43.2 96-96 96zM96 768h832c17.346 0 32-14.654 32-32v-96h-896v96c0 17.346 14.654 32 32 32zM928 128h-832c-17.346 0-32 14.654-32 32v288h896v-288c0-17.346-14.654-32-32-32zM128 320h64v-128h-64zM256 320h64v-128h-64zM384 320h64v-128h-64z" />
<glyph unicode="&#xe971;" glyph-name="user" d="M576 253.388v52.78c70.498 39.728 128 138.772 128 237.832 0 159.058 0 288-192 288s-192-128.942-192-288c0-99.060 57.502-198.104 128-237.832v-52.78c-217.102-17.748-384-124.42-384-253.388h896c0 128.968-166.898 235.64-384 253.388z" />
<glyph unicode="&#xe972;" glyph-name="users" horiz-adv-x="1152" d="M768 189.388v52.78c70.498 39.728 128 138.772 128 237.832 0 159.058 0 288-192 288s-192-128.942-192-288c0-99.060 57.502-198.104 128-237.832v-52.78c-217.102-17.748-384-124.42-384-253.388h896c0 128.968-166.898 235.64-384 253.388zM327.196 164.672c55.31 36.15 124.080 63.636 199.788 80.414-15.054 17.784-28.708 37.622-40.492 59.020-30.414 55.234-46.492 116.058-46.492 175.894 0 86.042 0 167.31 30.6 233.762 29.706 64.504 83.128 104.496 159.222 119.488-16.914 76.48-61.94 126.75-181.822 126.75-192 0-192-128.942-192-288 0-99.060 57.502-198.104 128-237.832v-52.78c-217.102-17.748-384-124.42-384-253.388h279.006c14.518 12.91 30.596 25.172 48.19 36.672z" />
<glyph unicode="&#xe9cb;" glyph-name="link" d="M440.236 324.234c-13.31 0-26.616 5.076-36.77 15.23-95.134 95.136-95.134 249.934 0 345.070l192 192c46.088 46.086 107.36 71.466 172.534 71.466s126.448-25.38 172.536-71.464c95.132-95.136 95.132-249.934 0-345.070l-87.766-87.766c-20.308-20.308-53.23-20.308-73.54 0-20.306 20.306-20.306 53.232 0 73.54l87.766 87.766c54.584 54.586 54.584 143.404 0 197.99-26.442 26.442-61.6 41.004-98.996 41.004s-72.552-14.562-98.996-41.006l-192-191.998c-54.586-54.586-54.586-143.406 0-197.992 20.308-20.306 20.306-53.232 0-73.54-10.15-10.152-23.462-15.23-36.768-15.23zM256-52c-65.176 0-126.45 25.38-172.534 71.464-95.134 95.136-95.134 249.934 0 345.070l87.764 87.764c20.308 20.306 53.234 20.306 73.54 0 20.308-20.306 20.308-53.232 0-73.54l-87.764-87.764c-54.586-54.586-54.586-143.406 0-197.992 26.44-26.44 61.598-41.002 98.994-41.002s72.552 14.562 98.998 41.006l192 191.998c54.584 54.586 54.584 143.406 0 197.992-20.308 20.308-20.306 53.232 0 73.54 20.306 20.306 53.232 20.306 73.54-0.002 95.132-95.134 95.132-249.932 0.002-345.068l-192.002-192c-46.090-46.088-107.364-71.466-172.538-71.466z" />
<glyph unicode="&#xeabe;" glyph-name="appleinc" d="M791.498 415.908c-1.294 129.682 105.758 191.876 110.542 194.966-60.152 88.020-153.85 100.078-187.242 101.472-79.742 8.074-155.596-46.948-196.066-46.948-40.368 0-102.818 45.754-168.952 44.552-86.916-1.292-167.058-50.538-211.812-128.38-90.304-156.698-23.126-388.84 64.89-515.926 43.008-62.204 94.292-132.076 161.626-129.58 64.842 2.588 89.362 41.958 167.756 41.958s100.428-41.958 169.050-40.67c69.774 1.296 113.982 63.398 156.692 125.796 49.39 72.168 69.726 142.038 70.924 145.626-1.548 0.706-136.060 52.236-137.408 207.134zM662.562 796.478c35.738 43.358 59.86 103.512 53.28 163.522-51.478-2.096-113.878-34.29-150.81-77.55-33.142-38.376-62.148-99.626-54.374-158.436 57.466-4.484 116.128 29.204 151.904 72.464z" />
<glyph unicode="&#xeac0;" glyph-name="android" d="M896 576c-35.2 0-64-28.8-64-64v-256c0-35.2 28.8-64 64-64s64 28.8 64 64v256c0 35.2-28.8 64-64 64zM128 576c-35.2 0-64-28.8-64-64v-256c0-35.2 28.8-64 64-64s64 28.8 64 64v256c0 35.2-28.802 64-64 64zM224 224c0-53.020 42.98-96 96-96v0-128c0-35.2 28.8-64 64-64s64 28.8 64 64v128h128v-128c0-35.2 28.8-64 64-64s64 28.8 64 64v128c53.020 0 96 42.98 96 96v352h-576v-352zM798.216 639.998c-9.716 87.884-59.004 163.792-129.62 209.646l32.024 64.046c7.904 15.806 1.496 35.028-14.31 42.932s-35.030 1.496-42.932-14.312l-32.142-64.286-8.35 3.316c-28.568 9.502-59.122 14.66-90.886 14.66-31.762 0-62.316-5.158-90.888-14.656l-8.348-3.316-32.142 64.282c-7.904 15.808-27.128 22.212-42.932 14.312-15.808-7.904-22.214-27.126-14.312-42.932l32.022-64.046c-70.616-45.852-119.904-121.762-129.622-209.644v-32h574.222v31.998h-1.784zM416 704c-17.674 0-32 14.328-32 32 0 17.648 14.288 31.958 31.93 31.996 0.032 0 0.062-0.002 0.094-0.002 0.018 0 0.036 0.002 0.052 0.002 17.638-0.042 31.924-14.35 31.924-31.996 0-17.672-14.326-32-32-32zM608 704c-17.674 0-32 14.328-32 32 0 17.646 14.286 31.954 31.924 31.996 0.016 0 0.034-0.002 0.050-0.002 0.032 0 0.064 0.002 0.096 0.002 17.64-0.038 31.93-14.348 31.93-31.996 0-17.672-14.326-32-32-32z" />
</font>
</defs>
</svg>
